<?xml version="1.0" encoding="UTF-8"?>
<svg width="446px" height="445px" viewBox="0 0 446 445" version="1.1" xmlns="http://www.w3.org/2000/svg" xmlns:xlink="http://www.w3.org/1999/xlink">
    <title>4707120</title>
    <defs>
        <polygon id="path-1" points="0.06 0.0758749991 445.00625 0.0758749991 445.00625 257 0.06 257"></polygon>
        <path d="M9.101,47.339 C5.114,47.339 1.5,46.051 0.767,41.656 C0.747,41.531 0.735999832,41.359 0.735999832,41.145 C0.735,36.639 5.188,13.233 9.015,8.094 C13.024,2.71 17.554,0.992 21.68,0.253 C21.68,0.253 26.169,2.401 26.1660015,11.089 C26.1660015,11.756 26.139,12.462 26.082,13.208 C25.281,23.672 21.157,44.749 21.157,44.749 C21.157,44.749 14.754,47.339 9.101,47.339 L9.101,47.339 Z" id="path-3"></path>
    </defs>
    <g id="DESKTOP" stroke="none" stroke-width="1" fill="none" fill-rule="evenodd">
        <g id="RÉALISATION" transform="translate(-130.000000, -179.000000)">
            <g id="4707120" transform="translate(130.000000, 179.000000)">
                <g id="Group-3" transform="translate(0.000000, 188.000000)">
                    <mask id="mask-2" fill="white">
                        <use xlink:href="#path-1"></use>
                    </mask>
                    <g id="Clip-2"></g>
                    <path d="M379.837,37.701 C466.73,87.869 466.729,169.207 379.836,219.374 C292.943,269.542 152.062,269.542 65.169,219.375 C-21.723,169.207 -21.723,87.87 65.17,37.702 C152.063,-12.466 292.945,-12.466 379.837,37.701" id="Fill-1" fill="#none" mask="url(#mask-2)"></path>
                </g>
                <path d="M85.498,317.747 C95.117,323.3 95.117,332.304 85.497,337.858 C75.879,343.411 60.284,343.411 50.665,337.858 C41.046,332.304 41.046,323.3 50.665,317.747 C60.284,312.193 75.879,312.193 85.498,317.747" id="Fill-4" fill="#DDDED8"></path>
                <path d="M257.761,251.577 L95.886,345.036 C93.201,346.586 93.201,350.461 95.886,352.011 L191.021,406.937 C195.889,409.748 201.886,409.748 206.754,406.937 L368.629,313.479 C371.314,311.929 371.314,308.054 368.629,306.504 L273.493,251.577 C268.626,248.767 262.628,248.767 257.761,251.577" id="Fill-5" fill="#DDDED8"></path>
                <path d="M209.158,252.488 L144.349,289.905 C138.646,293.198 138.646,301.43 144.349,304.722 L176.984,323.565 C181.377,326.101 186.789,326.101 191.183,323.565 L255.991,286.147 C261.694,282.855 261.694,274.623 255.991,271.33 L223.356,252.488 C218.963,249.951 213.551,249.951 209.158,252.488" id="Fill-6" fill="#DDDED8"></path>
                <path d="M69.381,291.002 C69.381,291.002 54.16,276.139 62.822,251.241 C67.677,237.286 83.762,227.039 92.924,226.076 C92.924,226.076 87.953,231.803 85.766,238.147 L74.228,245.817 L84.833,242.496 L82.574,251.574 C82.574,251.574 72.71,257.539 71.249,258.84 L81.883,256.061 C81.883,256.061 81.068,281.762 69.381,291.002" id="Fill-7" fill="#A1669C"></path>
                <path d="M70.191,275.523 C69.318,273.677 68.199,271.775 66.786,269.839 C66.647,260.505 67.962,249.845 73.159,241.76 C73.159,241.76 65.679,250.517 65.79,268.53 C65.513,268.181 65.225,267.83 64.928,267.479 C63.441,265.721 61.892,264.146 60.308,262.734 C60.612,259.191 61.391,255.353 62.822,251.241 C67.677,237.286 83.762,227.039 92.924,226.076 C92.924,226.076 87.953,231.803 85.766,238.147 L74.228,245.817 L84.833,242.496 L82.574,251.574 C82.574,251.574 72.71,257.539 71.249,258.84 L81.883,256.061 C81.883,256.061 81.752,260.17 80.849,265.693 C78.635,267.11 76.429,268.811 74.302,270.852 C72.678,272.41 71.32,273.974 70.191,275.523" id="Fill-8" fill="#F4661B"></path>
                <path d="M69.381,291.002 C69.381,291.002 61.499,259.898 73.159,241.76 C73.159,241.76 59.491,257.765 69.381,291.002" id="Fill-9" fill="#FFFFFE"></path>
                <path d="M86.8,295.213 L68.177,294.98 L68.177,294.977 L68.081,294.978 L67.986,294.977 L67.986,294.98 L49.363,295.213 C49.363,295.213 49.157,318.155 56.222,327.49 L56.223,327.49 C58.174,329.972 62.749,331.714 68.081,331.714 C73.424,331.714 78.004,329.966 79.949,327.478 C87.005,318.134 86.8,295.213 86.8,295.213" id="Fill-10" fill="#253C40"></path>
                <path d="M86.8,295.213 C86.8,300.763 78.419,305.262 68.081,305.262 C57.743,305.262 49.363,300.763 49.363,295.213 C49.363,289.663 57.743,285.164 68.081,285.164 C78.419,285.164 86.8,289.663 86.8,295.213" id="Fill-11" fill="#334F55"></path>
                <path d="M68.081,292.547 C74.522,292.547 79.975,294.613 81.896,297.474 C82.374,296.762 82.643,296.004 82.643,295.213 C82.643,291.244 76.123,288.026 68.081,288.026 C60.039,288.026 53.52,291.244 53.52,295.213 C53.52,296.004 53.789,296.762 54.266,297.474 C56.188,294.613 61.641,292.547 68.081,292.547" id="Fill-12" fill="#132529"></path>
                <path d="M68.081,292.547 C61.641,292.547 56.188,294.613 54.266,297.474 C56.188,300.334 61.641,302.4 68.081,302.4 C74.522,302.4 79.975,300.334 81.896,297.474 C79.975,294.613 74.522,292.547 68.081,292.547" id="Fill-13" fill="#D4D5CF"></path>
                <path d="M68.31,298.715 C68.31,298.715 61.096,298.435 54.909,288.854 C52.357,284.903 51.127,282.827 51.127,282.827 L61.178,282.079 L49.917,279.264 L44.596,271.124 L53.948,270.43 C53.948,270.43 46.983,267.99 42.01,267.958 C42.01,267.958 33.386,252.725 30.864,250.554 C30.864,250.554 50.752,250.718 64.928,267.479 C79.105,284.24 70.413,299.144 68.31,298.715" id="Fill-14" fill="#FEA347"></path>
                <path d="M68.31,298.715 C68.31,298.715 72.822,271.54 44.029,255.193 C44.029,255.193 73.912,269.548 68.31,298.715" id="Fill-15" fill="#FFFFFE"></path>
                <path d="M68.31,298.715 C68.31,298.715 74.845,299.141 81.33,291.08 C84.004,287.755 85.31,285.999 85.31,285.999 L76.312,284.377 L86.737,282.898 L92.303,276.054 L83.932,274.547 C83.932,274.547 90.445,273.002 94.935,273.442 C94.935,273.442 104.15,260.509 106.63,258.788 C106.63,258.788 88.671,257.064 74.302,270.852 C59.934,284.639 66.372,298.904 68.31,298.715" id="Fill-16" fill="#A1669C"></path>
                <path d="M68.484,298.719 C68.482,298.719 68.48,298.719 68.478,298.719 C68.368,298.719 68.31,298.715 68.31,298.715 C68.298,298.716 68.285,298.717 68.271,298.717 C67.273,298.717 65.191,295.126 65.19,289.812 C65.19,284.571 67.214,277.653 74.302,270.852 C85.797,259.822 99.589,258.719 104.646,258.719 C105.911,258.719 106.63,258.788 106.63,258.788 C104.15,260.509 94.935,273.442 94.935,273.442 C94.376,273.387 93.786,273.363 93.181,273.363 C88.925,273.363 83.932,274.547 83.932,274.547 L92.303,276.054 L86.737,282.898 L76.312,284.377 L85.31,285.999 C85.31,285.999 84.004,287.755 81.33,291.08 C81.155,291.298 80.979,291.51 80.805,291.715 C79.877,292.804 78.953,293.723 78.05,294.5 C73.415,298.489 69.357,298.719 68.484,298.719" id="Fill-17" fill="#FEA347"></path>
                <path d="M68.31,298.715 C68.31,298.715 66.798,273.772 94.315,261.734 C94.315,261.734 66.002,271.872 68.31,298.715" id="Fill-18" fill="#FFFFFE"></path>
                <polyline id="Fill-19" fill="none" points="101.41 77.443 101.41 127.124 58.385 151.963 58.385 102.284 101.41 77.443"></polyline>
                <path d="M99.08,76.099 L56.056,100.939 L56.056,150.619 L58.385,151.963 L101.41,127.124 L101.41,77.443 L99.08,76.099 Z M96.751,80.133 L96.751,124.434 L58.385,146.585 L58.385,102.284 L96.751,80.133 L96.751,80.133 Z" id="Fill-20" fill="none"></path>
                <path d="M101.41,77.443 L58.385,102.284 L58.385,151.963 L101.41,127.124 L101.41,77.443 Z M99.08,81.478 L99.08,125.779 L60.714,147.93 L60.714,103.628 L99.08,81.478 L99.08,81.478 Z" id="Fill-21" fill="none"></path>
                <polyline id="Fill-22" fill="none" points="95.095 115.758 62.547 134.55 72.163 109.531 78.821 117.44 85.63 107.745 95.095 115.758"></polyline>
                <path d="M83.805,100.151 C83.805,102.044 82.475,104.347 80.836,105.293 C79.196,106.24 77.866,105.472 77.866,103.579 C77.866,101.686 79.196,99.383 80.836,98.437 C82.475,97.49 83.805,98.257 83.805,100.151" id="Fill-23" fill="none"></path>
                <polyline id="Fill-24" fill="none" points="115.764 15.591 115.764 55.168 81.489 74.957 81.489 35.38 115.764 15.591"></polyline>
                <path d="M113.909,14.52 L79.634,34.309 L79.634,73.886 L81.489,74.957 L115.764,55.168 L115.764,15.591 L113.909,14.52 Z M112.053,17.733 L112.053,53.026 L81.489,70.672 L81.489,35.38 L112.053,17.733 L112.053,17.733 Z" id="Fill-25" fill="none"></path>
                <path d="M115.764,15.591 L81.489,35.38 L81.489,74.957 L115.764,55.168 L115.764,15.591 Z M113.909,18.805 L113.909,54.097 L83.345,71.744 L83.345,36.451 L113.909,18.805 L113.909,18.805 Z" id="Fill-26" fill="none"></path>
                <polyline id="Fill-27" fill="none" points="110.734 46.115 84.804 61.085 92.465 41.154 97.769 47.454 103.193 39.731 110.734 46.115"></polyline>
                <path d="M101.739,33.681 C101.739,35.189 100.68,37.023 99.374,37.777 C98.068,38.532 97.009,37.92 97.009,36.412 C97.009,34.904 98.068,33.069 99.374,32.315 C100.68,31.561 101.739,32.173 101.739,33.681" id="Fill-28" fill="none"></path>
                <path d="M188.656,244.375 L202.568,329.264 C202.778,330.544 203.884,331.483 205.181,331.483 C206.76,331.483 207.988,330.111 207.813,328.542 L198.053,240.966 L188.656,244.375" id="Fill-29" fill="#132529"></path>
                <path d="M236.677,215.823 L250.589,300.712 C250.798,301.993 251.905,302.933 253.202,302.933 C254.781,302.933 256.009,301.56 255.834,299.991 L246.074,212.415 L236.677,215.823" id="Fill-30" fill="#132529"></path>
                <path d="M167.3,224.523 L153.573,297.676 C153.379,298.734 152.463,299.495 151.379,299.495 C150.025,299.495 148.979,298.283 149.173,296.941 L159.314,229.141 L167.3,224.523" id="Fill-31" fill="#132529"></path>
                <path d="M215.863,197.234 L202.213,269.937 C202.019,270.995 201.103,271.756 200.019,271.756 C198.665,271.756 197.62,270.544 197.813,269.202 L207.877,201.841 L215.863,197.234" id="Fill-32" fill="#132529"></path>
                <path d="M211.903,191.7 C205.497,188.844 201.107,182.805 200.413,175.825 C198.199,153.551 190.355,107.649 163.77,122.929 C130.957,141.789 142.705,196.556 147.476,214.118 C148.552,218.08 150.614,221.693 153.506,224.607 C159.433,230.579 171.706,240.861 192.578,249.617 C195.139,250.691 197.992,250.86 200.662,250.099 C211.032,247.145 238.124,238.073 251.632,220.801 C253.228,218.76 252.881,215.811 250.852,214.198 C245.381,209.849 233.018,201.113 211.903,191.7" id="Fill-33" fill="#A1669C"></path>
                <path d="M150.065,220.19 C149.143,218.659 148.395,217.024 147.834,215.314 C147.705,214.919 147.585,214.521 147.475999,214.118 C145.242,205.895 141.478,189.513 141.475999,172.48 C141.474,153.139 146.322,132.958 163.77,122.929 C163.781,122.923 163.794,122.916 163.805,122.909 C164.374,122.583 164.933,122.295 165.485,122.023 C165.608,121.963 165.731,121.902 165.853,121.845 C166.408,121.583 166.956,121.343 167.495,121.136 L167.652,121.08 C168.168,120.885 168.675,120.718 169.176,120.572 L169.407,120.504 C169.946,120.354 170.475,120.232 170.996,120.137 L171.129,120.115 C172.026,119.96 172.896,119.884 173.741,119.884 C173.92,119.884 174.098,119.887 174.275,119.894 L174.333,119.897 C175.366,119.941 176.36,120.097 177.316,120.359 C177.298,120.351 177.281,120.344 177.264,120.336 C179.879,121.042 182.213,122.527 184.293,124.598 L174.681,129.253 L174.68,129.253 C170.554,129.992 166.024,131.71 162.015,137.094 C158.188,142.233 153.735,165.639 153.736,170.145 C153.736,170.359 153.747,170.531 153.767,170.656 C153.87,171.269 154.028,171.821 154.235,172.318 C153.225,178.494 152.512,183.995 152.706,186.429 C152.891,188.733 156.271,191.495 160.541,194.095 C160.591,197.336 160.664,199.281 160.664,199.281 C160.664,199.281 160.667,199.287 160.673,199.299 C160.414,201.333 160.201,203.819 160.201,206.493 C160.201,208.897 160.373,211.454 160.839,213.97 L150.065,220.19" id="Fill-34" fill="#F4661B"></path>
                <path d="M252.609,217.657 C252.664,218.752 252.36,219.87 251.632,220.801 C250.91,221.723 250.143,222.617 249.35,223.492 L249.349,223.493 C248.915,223.971 248.471,224.443 248.017,224.908 L247.99,224.936 C247.54,225.396 247.082,225.849 246.615,226.295 L246.574,226.335 C246.107,226.78 245.632,227.219 245.148,227.652 L245.112,227.684 C244.625,228.12 244.13,228.548 243.628,228.971 L243.608,228.987 C235.948,235.42 226.652,240.314 218.341,243.847 L218.308,243.86 C217.791,244.08 217.278,244.294 216.769,244.504 L216.609,244.57 C216.132,244.765 215.66,244.956 215.192,245.142 L214.945,245.24 C214.5,245.416 214.06,245.587 213.624,245.755 C213.523,245.794 213.422,245.833 213.322,245.872 C212.906,246.03 212.496,246.186 212.089,246.337 C211.97,246.381 211.851,246.425 211.733,246.469 C211.349,246.611 210.971,246.75 210.597,246.885 C210.458,246.935 210.322,246.983 210.185,247.032 C209.831,247.159 209.481,247.284 209.136,247.404 C208.989,247.456 208.846,247.505 208.7,247.555 C208.372,247.669 208.047,247.781 207.729,247.889 C207.572,247.943 207.419,247.994 207.264,248.045 C206.966,248.146 206.669,248.245 206.381,248.34 C206.21,248.396 206.046,248.449 205.879,248.503 C205.614,248.59 205.348,248.676 205.092,248.758 C204.909,248.816 204.735,248.871 204.557,248.927 C204.327,249 204.095,249.073 203.872,249.143 C203.675,249.204 203.488,249.26 203.297,249.319 C203.103,249.378 202.907,249.439 202.72,249.495 C202.477,249.568 202.247,249.636 202.016,249.705 C201.898,249.74 201.773,249.777 201.658,249.811 C201.311,249.913 200.978,250.009 200.662,250.099 C197.992,250.86 195.139,250.691 192.578,249.617 C171.706,240.861 159.433,230.579 153.506,224.607 C150.614,221.693 148.552,218.08 147.476,214.118 C142.705,196.556 130.957,141.789 163.77,122.929 C164.351,122.595 164.921,122.3 165.485,122.023 C165.608,121.963 165.731,121.902 165.853,121.845 C166.408,121.583 166.956,121.343 167.495,121.136 L167.652,121.08 C168.168,120.885 168.675,120.718 169.176,120.572 L169.407,120.504 C169.946,120.354 170.475,120.232 170.996,120.137 L171.129,120.115 C172.216,119.927 173.264,119.856 174.275,119.894 L174.333,119.897 C175.366,119.941 176.36,120.097 177.316,120.359 C172.075,118.043 165.675,118.148 159.33,121.795 C126.517,140.655 138.265,195.422 143.036,212.984 L143.843,216.001 C145.472,222.094 149.074,227.476 154.085,231.306 L162.599,237.814 L162.599,237.81 C169.493,243.111 179.273,249.296 192.546,254.867 C195.114,255.945 197.976,256.128 200.654,255.364 C211.018,252.413 238.12,243.341 251.632,226.065 C252.234,225.295 252.544,224.398 252.602,223.492 L252.623,223.492 L252.623,217.644 L252.609,217.657" id="Fill-35" fill="#A1669C"></path>
                <path d="M146.374,222.321 C145.288,220.335 144.435,218.215 143.843,216.001 L143.035999,212.984 C140.802,204.76 137.038,188.379 137.035999,171.346 C137.034,152.005 141.883,131.823 159.33,121.795 C162.918,119.733 166.522,118.803 169.926,118.803 C172.541,118.803 175.038,119.353 177.316,120.359 C176.36,120.097 175.366,119.941 174.333,119.897 L174.275,119.894 C174.098,119.887 173.92,119.884 173.741,119.884 C172.896,119.884 172.026,119.96 171.129,120.115 L170.996,120.137 C170.475,120.232 169.946,120.354 169.407,120.504 L169.176,120.572 C168.675,120.718 168.168,120.885 167.652,121.08 L167.495,121.136 C166.956,121.343 166.408,121.583 165.853,121.845 C165.731,121.902 165.608,121.963 165.485,122.023 C164.933,122.295 164.374,122.583 163.805,122.909 C163.793,122.916 163.782,122.922 163.77,122.929 C146.322,132.958 141.474,153.139 141.476,172.48 C141.478,189.513 145.242,205.895 147.476,214.118 C148.058,216.263 148.93,218.305 150.065,220.19 L146.374,222.321" id="Fill-36" fill="#FEA347"></path>
                <path d="M270.716,280.323 C268.471,266.041 265.606,243.199 263.961,229.692 C263.853,228.805 263.703,227.926 263.515,227.06 C261.868,219.521 256.929,213.111 250.298,209.164 L216.642,189.127 L193.791,177.109 C193.791,177.109 187.709,194.731 194.775,205.503 C200.656,214.469 226.615,225.589 234.328,229.334 C242.042,233.078 242.21,234.099 242.049,239.106 C241.888,244.114 241.883,250.492 251.366,270.477 C254.091,276.22 255.99,280.515 257.315,283.806 C260.618,284.093 265.523,283.686 270.716,280.323" id="Fill-37" fill="#A1669C"></path>
                <path d="M259.055,283.881001 C258.436,283.881001 257.854,283.853 257.315,283.806 C256.256,281.177 254.831,277.907 252.912,273.77 C252.428,272.729 251.914,271.632 251.366,270.477 C250.995,269.696 250.638,268.935 250.296,268.195 L267.575,258.219 C268.638,266.226 269.736,274.089 270.716,280.323 C266.37,283.137 262.227,283.882 259.055,283.881001" id="Fill-38" fill="#281429"></path>
                <path d="M260.306,295.452 C260.29,296.049 260.428,296.631 260.713,297.156 C261.34,298.31 262.775,300.474 265.776,303.181 C270.31,307.27 285.341,323.274 290.626,313.339 C290.626,313.339 275.098,298.466 273.039,292.349 C272.454,290.611 271.638,286.183 270.716,280.323 C265.523,283.686 260.618,284.093 257.315,283.806 C260.227,291.038 260.356,293.397 260.306,295.452" id="Fill-39" fill="#EFACAB"></path>
                <path d="M276.465,294.479 L276.034,293.189 C275.699,292.187 274.625,291.635 273.615,291.946 L267.324,293.886 C266.513,294.136 265.959,294.886 265.959,295.735 L265.959,296.363 C265.959,296.984 265.456,297.488 264.835,297.488 C263.503,297.488 262.212,297.025 261.184,296.177 L260.306,295.452 L260.306,293.254 C259.15,294.005 258.479,295.315 258.551,296.692 C258.629,298.184 258.702,300.006 258.647,300.73 C258.546,302.044 257.309,307.548 258.782,309.175 C260.254,310.802 263.549,310.995 267.629,310.555 C271.709,310.114 276.174,314.13 279.955,315.616 C283.736,317.102 299.394,320.309 299.355073,310.298 C299.345,307.749 296.822,306.709 294.347,305.804 C291.871,304.9 282.934,301.753 280.643,299.862 C279.594,298.997 278.725,298.083 278.092,297.346 C277.367,296.503 276.817,295.534 276.465,294.479" id="Fill-40" fill="#334F55"></path>
                <path d="M279.955,315.616 C276.174,314.13 271.709,310.114 267.629,310.555 C263.549,310.995 260.254,310.801 258.782,309.175 C258.338,308.685 258.143,307.84 258.086,306.867 C258.01,308.407 258.13,309.887 258.782,310.607 C260.254,312.233 263.549,312.427 267.629,311.986 C271.709,311.546 276.174,315.562 279.955,317.047 C283.736,318.533 299.394,321.741 299.355073,311.73 C299.354,311.575 299.317,311.442 299.298,311.297 C298.308,320.083 283.604,317.049 279.955,315.616" id="Fill-41" fill="#132529"></path>
                <path d="M240.139,297.667 C237.894,283.384 235.029,260.542 233.384,247.035 C232.519,239.935 229.014,233.428 223.565,228.795 L183.171,194.452 L161.585,194.081 C161.585,194.081 157.132,212.074 164.198,222.846 C170.078,231.812 196.038,242.933 203.752,246.677 C211.465,250.421 211.633,251.442 211.472,256.449 C211.311,261.457 211.306,267.835 220.789,287.82 C223.514,293.563 225.412,297.858 226.738,301.15 C230.041,301.436 234.946,301.029 240.139,297.667" id="Fill-42" fill="#A1669C"></path>
                <path d="M228.477,301.225 C227.859,301.225 227.277,301.196 226.738,301.15 C225.412,297.858 223.514,293.563 220.789,287.82 C220.459,287.125 220.14,286.446 219.833,285.783 L237.037,275.851 C238.088,283.758 239.171,291.508 240.139,297.667 C235.793,300.48 231.649,301.225 228.477,301.225 M160.839,213.97 C160.373,211.454 160.201,208.897 160.201,206.493 C160.201,203.819 160.414,201.333 160.673,199.299 C160.836,199.63 163.473,204.655 173.957,206.396 L160.839,213.97" id="Fill-43" fill="#281429"></path>
                <path d="M229.717,311.51 C229.702,312.107 229.304,313.881 230.136,314.499 C231.191,315.282 232.199,317.817 235.199,320.524 C239.733,324.613 244.521,315.809 242.463,309.692 C241.878,307.954 241.06,303.526 240.139,297.667 C234.946,301.029 230.041,301.436 226.738,301.15 C229.65,308.381 229.768,309.455 229.717,311.51" id="Fill-44" fill="#EFACAB"></path>
                <path d="M203.02,119.568 C209.401,118.572 215.609,122.296 217.634,128.428 C218.85,132.112 219.94,136.608 220.363,141.642 C221.529,155.493 221.852,162.419 221.852,162.419 L235.766,168.73 C235.766,168.73 228.252,169.09 228.762,179.7 L211.432,175.332 L203.02,119.568" id="Fill-45" fill="#EFACAB"></path>
                <path d="M222.366,154.046 C220.316,139.041 219.502,131.198 217.742,127.472 C214.984,121.632 209.401,118.572 203.02,119.568 L208.259,160.768 L208.934,160.702 C213.575,160.248 217.948,158.315 221.408,155.188 L222.366,154.046" id="Fill-46" fill="#A1669C"></path>
                <path d="M212.878,159.944 C212.53,148.235 211.926,135.567 210.888,130.164 C209.511,122.991 206.035,120.476 203.038,119.707 L203.02,119.568 C203.819,119.443 204.605,119.382 205.375,119.382 C210.754,119.382 215.33,122.364 217.742,127.472 C219.502,131.198 220.316,139.041 222.366,154.046 L221.408,155.188 C218.949,157.411 216.028,159.03 212.878,159.944" id="Fill-47" fill="#E67E30"></path>
                <path d="M221.852,162.419 C221.852,162.419 219.198,163.195 217.742,164.943 C217.742,164.943 219.421,161.753 221.767,160.768 L221.852,162.419" id="Fill-48" fill="#E18D8C"></path>
                <path d="M169.602,131.713 L185.165,124.175 L197.987,119.751 C197.987,119.751 208.259,116.474 210.888,130.164 C213.049,141.417 213.331,184.172 213.331,184.172 L213.102,188.851 C213.102,188.851 207.17,205.466 185.979,206.841 C164.788,208.215 160.664,199.281 160.664,199.281 C160.664,199.281 158.519,142.711 169.602,131.713" id="Fill-49" fill="#E67E30"></path>
                <path d="M218.632,86.006 C218.632,86.006 223.443,98.334 216.8,103.762 C210.156,109.19 212.458,87.38 212.458,87.38 L218.632,86.006" id="Fill-50" fill="#132529"></path>
                <path d="M206.915,403.458 C205.408,404.329 202.962,404.329 201.454,403.458 C199.946,402.587 199.946,401.175 201.454,400.305 C202.962,399.434 205.408,399.434 206.915,400.305 C208.424,401.175 208.424,402.587 206.915,403.458" id="Fill-51" fill="#334F55"></path>
                <polygon id="Fill-52" fill="#253C40" points="200.33 401.795 208.054 401.795 208.054 308.837 200.33 308.837"></polygon>
                <path d="M119.101,351.894 C117.593,352.764 115.148,352.764 113.64,351.894 C112.132,351.023 112.132,349.611 113.64,348.74 C115.148,347.87 117.593,347.87 119.101,348.74 C120.609,349.611 120.609,351.023 119.101,351.894" id="Fill-53" fill="#334F55"></path>
                <polygon id="Fill-54" fill="#132529" points="112.516 350.231 120.24 350.231 120.24 257.273 112.516 257.273"></polygon>
                <path d="M350.868,320.056 C349.36,320.926 346.914,320.926 345.407,320.056 C343.898,319.185 343.898,317.773 345.406,316.902 C346.914,316.032 349.36,316.032 350.868,316.902 C352.376,317.773 352.376,319.185 350.868,320.056" id="Fill-55" fill="#334F55"></path>
                <polygon id="Fill-56" fill="#253C40" points="344.282 318.393 352.006 318.393 352.006 225.435 344.282 225.435"></polygon>
                <path d="M256.465,249.71 C255.112,250.491 252.919,250.491 251.566,249.71 C250.214,248.929 250.214,247.663 251.566,246.882 C252.919,246.101 255.112,246.101 256.465,246.882 C257.818,247.663 257.818,248.929 256.465,249.71" id="Fill-57" fill="#334F55"></path>
                <polygon id="Fill-58" fill="#334F55" points="250.558 248.218 257.486 248.218 257.486 170.642 250.558 170.642"></polygon>
                <polyline id="Fill-59" fill="#132529" points="112.509 241.873 112.509 260.367 204.198 313.304 204.198 294.81 112.509 241.873"></polyline>
                <polyline id="Fill-60" fill="#253C40" points="352.006 209.473 204.198 294.81 204.198 313.304 352.006 227.967 352.006 209.473"></polyline>
                <polyline id="Fill-61" fill="#334F55" points="260.317 156.536 112.509 241.873 204.198 294.81 352.006 209.473 260.317 156.536"></polyline>
                <polyline id="Fill-62" fill="#E4E4DE" points="186.162 214.122 219.783 233.532 275.678 201.209 242.062 181.402 186.162 214.122"></polyline>
                <polyline id="Fill-63" fill="#D4D5CF" points="216.164 208.599 228.777 201.317 220.872 196.753 208.259 204.035 216.164 208.599"></polyline>
                <polyline id="Fill-64" fill="#D4D5CF" points="221.211 228.685 204.221 218.685 237.426 198.587 221.211 228.685"></polyline>
                <path d="M230.721,166.328 L244.171,172.635 C249.561,173.899 256.048,176.306 256.048,176.306 C256.048,176.306 265.405,180.131 265.832,182.64 C266.259,185.149 258.81,191.194 252.265,188.252 C250.945,187.659 248.563,186.462 246.806,186.275 C245.05,186.088 239.834,185.267 236.057,181.665 L220.361,177.583 C220.361,177.583 219.578,167.889 230.721,166.328" id="Fill-65" fill="#EFACAB"></path>
                <path d="M239.429,185.09 C240.987,186.757 245.428,190.967 246.397,192.183 C247.367,193.399 249.655,190.272 245.642,185.611 C245.642,185.611 240.299,183.764 235.952,180.336 C235.952,180.336 237.871,183.423 239.429,185.09" id="Fill-66" fill="#E18D8C"></path>
                <polygon id="Fill-67" fill="#EFACAB" points="185.165 124.175 201.13 124.175 201.13 104.856 185.165 104.856"></polygon>
                <path d="M201.13,124.175 C195.487,121.997 189.592,117.627 186.464,110.228 L186.464,104.856 L201.13,104.856 L201.13,124.175" id="Fill-68" fill="#E18D8C"></path>
                <path d="M206.501,79.35 C206.501,79.35 221.022,81.097 217.692,105.902 C216.152,117.375 213.087,123.174 204.242,122.192 C194.219,121.081 180.374,113.296 182.52,93.641 C184.666,73.985 206.501,79.35 206.501,79.35" id="Fill-69" fill="#EFACAB"></path>
                <path d="M184.992,101.27 C184.992,101.27 187.227,105.913 188.601,105.752 C189.976,105.591 188.601,87.951 191.465,87.836 C194.329,87.722 207.823,94.428 219.758,85.775 C224.34,82.453 225.256,73.977 222.507,74.778 C219.758,75.58 216.047,77.986 211.03,77.642 C206.013,77.298 188.487,69.166 184.134,80.62 C184.134,80.62 174.428,79.83 178.075,99.091 C178.979,103.873 181.843,115.74 185.165,116.908 L184.992,101.27" id="Fill-76" fill="#132529"></path>
                <path d="M185.779,105.505 C185.818,104.054 185.586,102.595 184.992,101.27 C184.325,99.785 183.148,98.285 181.106,98.229 C176.622,98.107 176.017,102.423 176.078,103.96 C176.237,107.996 179.504,112.356 185.586,112.523 L185.779,105.505" id="Fill-77" fill="#EFACAB"></path>
                <path d="M187.166,191.956 L198.603,201.017 C198.603,201.017 202.222,201.366 204.407,202.022 C206.592,202.678 212.336,204.79 213.855,205.118 C215.375,205.447 213.411,208.063 209.437,207.112 C209.437,207.112 217.775,212.826 217.663,215.369 C217.551,217.911 208.993,222.248 203.217,217.99 C202.052,217.131 199.977,215.458 198.3,214.905 C196.622,214.352 191.697,212.447 188.766,208.129 L178.764,202.916 C178.764,202.916 175.945,191.129 187.166,191.956" id="Fill-78" fill="#EFACAB"></path>
                <path d="M174.68,129.253 C174.68,129.253 181.358,134.429 177.255,150.496 C173.153,166.563 170.961,180.417 170.961,180.417 L187.166,191.956 C187.166,191.956 180.315,194.391 178.765,202.916 C178.765,202.916 153.221,192.874 152.706,186.429 C152.191,179.985 158.034,152.075 158.922,146.945 C159.811,141.815 164.35,131.682 174.68,129.253" id="Fill-79" fill="#EFACAB"></path>
                <path d="M170.961,180.417 C170.961,180.417 167.676,179.717 164.851,180.476 C164.851,180.476 167.355,178.929 171.098,178.925 L170.961,180.417" id="Fill-80" fill="#E18D8C"></path>
                <path d="M283.471,164.172 L277.626,202.429 L277.583,202.492 L219.527,236.165 L219.394,236.074 L225.063,198.976 C225.307,197.375 226.245,195.963 227.626,195.116 L280.885,162.455 C282.126,161.694 283.69,162.733 283.471,164.172" id="Fill-81" fill="#FAF9F6"></path>
                <path d="M219.527,236.165 L188.514,218.202 C187.058,217.359 186.162,215.804 186.162,214.122 L219.783,233.532 L219.527,236.165" id="Fill-82" fill="#D4D5CF"></path>
                <path d="M249.87,201.041 C249.87,203.773 251.788,204.88 254.155,203.514 C256.521,202.148 258.44,198.825 258.44,196.093 C258.44,193.36 256.521,192.253 254.155,193.619 C251.788,194.985 249.87,198.308 249.87,201.041" id="Fill-83" fill="#D4D5CF"></path>
                <path d="M185.673,86.254 C185.673,86.254 183.038,82.359 184.642,81.1 C186.245,79.839 187.506,83.849 185.673,86.254" id="Fill-84" fill="#132529"></path>
                <path d="M186.117,87.068 C186.117,87.068 181.451,86.486 181.558,84.45 C181.665,82.413 185.513,84.104 186.117,87.068" id="Fill-85" fill="#132529"></path>
                <path d="M185.165,124.175 C185.165,124.175 188.59,133.199 196.493,132.054 C204.397,130.908 201.13,124.175 201.13,124.175 L185.165,124.175" id="Fill-86" fill="#EFACAB"></path>
                <path d="M174.68,129.253 C174.68,129.253 179.884,131.743 179.082,142.208 C178.281,152.672 174.157,173.749 174.157,173.749 C174.157,173.749 155.538,181.282 153.767,170.656 C153.309,167.907 158.006,142.478 162.015,137.094 C166.024,131.71 170.554,129.992 174.68,129.253" id="Fill-87" fill="#A1669C"></path>
                <g id="Group-90" transform="translate(153.000000, 129.000000)">
                    <mask id="mask-4" fill="white">
                        <use xlink:href="#path-3"></use>
                    </mask>
                    <g id="Clip-89"></g>
                    <polygon id="Fill-88" fill="#E67E30" mask="url(#mask-4)" points="0.735 47.339 26.169 47.339 26.169 0.253 0.735 0.253"></polygon>
                </g>
                <path d="M230.137,312.023 C230.137,312.023 231.295,313.848 233.177,314.146 C234.302,314.324 232.02,311.394 234.744,310.22 C237.469,309.047 243.697,307.425 244.251,309.77 L244.941,312.69 C245.594,315.451 246.912,318.006 248.783,320.14 C250.652,322.271 253.072,324.812 254.948,326.024 C258.504,328.32 264.352,333.869 256.845,338.593 C249.338,343.317 240.109,339.331 238.303,333.955 C236.496,328.58 234.585,327.026 233.621,326.134 C232.658,325.242 230.409,323.84 229.563,320.214 C229.014,317.861 228.7,314.845 228.548,313.018 C228.465,312.022 228.94,311.067 229.784,310.53 L230.137,312.023" id="Fill-91" fill="#334F55"></path>
                <path d="M256.845,338.593 C249.338,343.317 240.109,339.331 238.303,333.955 C236.496,328.58 234.585,327.026 233.621,326.134 C232.758,325.335 230.871,324.112 229.877,321.262 C229.89,321.41 229.907,321.562 229.916,321.707 C230.203,326.36 233.054,327.45 234.017,328.342 C234.98,329.234 236.557,330.708 238.364,336.084 C240.17,341.459 249.691,344.81 257.198,340.086 C260.842,337.792 261.335,335.306 260.475,333.091 C260.614,334.896 259.689,336.803 256.845,338.593" id="Fill-92" fill="#132529"></path>
                <path d="M220.762,267.21 L196.839,281.022 L166.645,263.59 L190.617,249.75 C191.252,249.383 192.034,249.383 192.669,249.75 L220.762,265.969 C221.24,266.245 221.24,266.935 220.762,267.21" id="Fill-93" fill="#A1669C"></path>
                <path d="M196.839,281.022 L166.645,263.59 L168.736,262.383 L168.736,263.334 L196.839,279.559 L219.105,266.703 C219.323,266.577 219.434,266.36 219.438,266.14 L219.438,266.139 C219.438,266.13 219.438,266.121 219.438,266.112 L219.438,265.205 L220.762,265.969 C221.001,266.107 221.12,266.349 221.12,266.59 C221.12,266.831 221.001,267.072 220.762,267.21 L196.839,281.022" id="Fill-94" fill="#F4661B"></path>
                <path d="M219.105,266.703 L196.839,279.559 L168.736,263.334 L191.048,250.452 C191.639,250.11 192.367,250.11 192.957,250.452 L219.105,265.548 C219.55,265.805 219.55,266.446 219.105,266.703" id="Fill-95" fill="#FFFFFE"></path>
                <polyline id="Fill-96" fill="#FFFFFE" points="196.839 279.559 196.839 277.051 219.438 264.003 219.438 266.14 196.839 279.559"></polyline>
                <polyline id="Fill-97" fill="#D4D5CF" points="196.839 279.559 196.839 277.051 168.736 260.826 168.736 263.334 196.839 279.559"></polyline>
                <path d="M220.762,263.239 L196.839,277.051 L166.645,259.619 L190.617,245.779 C191.252,245.412 192.034,245.412 192.669,245.779 L220.762,261.998 C221.24,262.274 221.24,262.963 220.762,263.239" id="Fill-98" fill="#A1669C"></path>
                <path d="M196.839,277.051 L196.839,277.051 L166.645,259.619 L190.617,245.779 C190.934,245.596 191.289,245.504 191.643,245.504 C191.997,245.504 192.351,245.596 192.669,245.779 L220.762,261.998 C221.001,262.136 221.12,262.377 221.12,262.619 C221.12,262.86 221.001,263.101 220.762,263.239 L196.839,277.051" id="Fill-99" fill="#DF6D14"></path>
                <path d="M193.718,279.221 C193.573,279.278 193.412,279.272 193.269,279.195 C193.091,279.1 192.983,278.921 192.983,278.718 L192.983,276.45 C192.983,275.408 193.54,274.432 194.436,273.901 L194.521,273.851 C194.642,273.78 194.75,273.826 194.79,273.849 C194.831,273.872 194.926,273.941 194.926,274.082 C194.926,274.341 195.136,274.552 195.396,274.552 C195.655,274.552 195.866,274.341 195.866,274.082 C195.866,273.642 195.638,273.25 195.256,273.032 C194.874,272.815 194.421,272.818 194.043,273.042 L193.957,273.092 C192.776,273.792 192.043,275.078 192.043,276.45 L192.043,278.718 C192.043,279.266 192.343,279.766 192.827,280.025 C193.046,280.142 193.285,280.2 193.525,280.2 C193.813,280.2 194.1,280.116 194.348,279.949 C194.444,279.886 194.502,279.792 194.532,279.691 L193.718,279.221" id="Fill-100" fill="#FFFFFE"></path>
                <path d="M189.248,276.641 C189.103,276.698 188.942,276.692 188.8,276.615 C188.62,276.519 188.514,276.341 188.514,276.138 L188.514,273.87 C188.514,272.828 189.07,271.852 189.966,271.321 L190.051,271.271 C190.172,271.2 190.28,271.246 190.32,271.269 C190.361,271.292 190.455,271.361 190.455,271.502 C190.455,271.761 190.666,271.972 190.926,271.972 C191.185,271.972 191.396,271.761 191.396,271.502 C191.396,271.062 191.168,270.67 190.786,270.452 C190.405,270.234 189.951,270.238 189.573,270.462 L189.487,270.512 C188.306,271.212 187.573,272.498 187.573,273.87 L187.573,276.138 C187.573,276.686 187.873,277.186 188.356,277.444 C188.576,277.562 188.816,277.62 189.055,277.62 C189.343,277.62 189.63,277.536 189.879,277.369 C189.973,277.306 190.032,277.212 190.062,277.11 L189.248,276.641" id="Fill-101" fill="#FFFFFE"></path>
                <path d="M184.778,274.061 C184.633,274.118 184.472,274.111 184.329,274.035 C184.15,273.939 184.043,273.761 184.043,273.558 L184.043,271.29 C184.043,270.248 184.6,269.272 185.496,268.741 L185.581,268.691 C185.702,268.62 185.81,268.666 185.85,268.689 C185.891,268.712 185.986,268.781 185.986,268.921 C185.986,269.181 186.196,269.392 186.455,269.392 C186.715,269.392 186.926,269.181 186.926,268.921 C186.926,268.482 186.698,268.089 186.316,267.872 C185.934,267.654 185.48,267.658 185.102,267.881 L185.017,267.932 C183.836,268.631 183.103,269.918 183.103,271.29 L183.103,273.558 C183.103,274.106 183.403,274.606 183.886,274.864 C184.106,274.982 184.346,275.04 184.585,275.04 C184.873,275.04 185.16,274.956 185.409,274.789 C185.503,274.726 185.562,274.632 185.592,274.53 L184.778,274.061" id="Fill-102" fill="#FFFFFE"></path>
                <path d="M180.308,271.481 C180.163,271.538 180.002,271.531 179.859,271.455 C179.681,271.359 179.573,271.181 179.573,270.978 L179.573,268.709 C179.573,267.668 180.13,266.692 181.026,266.161 L181.111,266.111 C181.232,266.04 181.34,266.086 181.38,266.108 C181.421,266.132 181.515,266.201 181.515,266.341 C181.515,266.601 181.726,266.812 181.986,266.812 C182.245,266.812 182.456,266.601 182.456,266.341 C182.456,265.902 182.228,265.509 181.846,265.292 C181.464,265.074 181.011,265.078 180.633,265.301 L180.547,265.352 C179.366,266.051 178.633,267.337 178.633,268.709 L178.633,270.978 C178.633,271.525 178.933,272.026 179.416,272.284 C179.636,272.401 179.876,272.46 180.115,272.46 C180.403,272.46 180.69,272.376 180.938,272.209 C181.034,272.146 181.092,272.052 181.122,271.95 L180.308,271.481" id="Fill-103" fill="#FFFFFE"></path>
                <path d="M175.838,268.9 C175.693,268.957 175.532,268.951 175.389,268.875 C175.21,268.779 175.103,268.601 175.103,268.398 L175.103,266.129 C175.103,265.088 175.66,264.111 176.556,263.581 L176.641,263.531 C176.762,263.46 176.87,263.505 176.91,263.528 C176.951,263.551 177.046,263.621 177.046,263.761 C177.046,264.021 177.256,264.232 177.515,264.232 C177.775,264.232 177.986,264.021 177.986,263.761 C177.986,263.322 177.758,262.929 177.376,262.712 C176.994,262.494 176.54,262.498 176.162,262.721 L176.077,262.772 C174.896,263.471 174.163,264.757 174.163,266.129 L174.163,268.398 C174.163,268.945 174.463,269.446 174.946,269.704 C175.165,269.821 175.406,269.879 175.645,269.879 C175.932,269.879 176.22,269.795 176.469,269.629 C176.563,269.566 176.621,269.472 176.652,269.37 L175.838,268.9" id="Fill-104" fill="#FFFFFE"></path>
                <path d="M171.368,266.32 C171.223,266.377 171.062,266.371 170.919,266.295 C170.74,266.199 170.633,266.021 170.633,265.817 L170.633,263.549 C170.633,262.508 171.19,261.531 172.086,261.001 L172.171,260.951 C172.292,260.879 172.4,260.925 172.44,260.948 C172.481,260.971 172.576,261.041 172.576,261.181 C172.576,261.441 172.786,261.651 173.046,261.651 C173.305,261.651 173.515,261.441 173.515,261.181 C173.515,260.742 173.287,260.349 172.906,260.131 C172.524,259.914 172.07,259.918 171.692,260.141 L171.607,260.192 C170.426,260.891 169.693,262.177 169.693,263.549 L169.693,265.817 C169.693,266.365 169.993,266.866 170.476,267.124 C170.696,267.241 170.935,267.299 171.175,267.299 C171.463,267.299 171.75,267.215 171.998,267.049 C172.093,266.985 172.152,266.892 172.181,266.79 L171.368,266.32" id="Fill-105" fill="#FFFFFE"></path>
                <polyline id="Fill-106" fill="#DDDED8" points="223.848 256.997 197.984 271.93 164.326 252.497 190.19 237.564 223.848 256.997"></polyline>
                <polyline id="Fill-107" fill="#FAF9F6" points="225.334 256.508 198.31 269.223 166.398 247.039 193.422 234.325 225.334 256.508"></polyline>
                <path d="M165.004,216.796 L143.056,216.796 L145.025,240.03 L145.034,240.03 C145.15,241.267 146.016,242.485 147.653,243.431 C151.176,245.464 156.888,245.464 160.41,243.431 C162.048,242.485 162.914,241.267 163.029,240.03 L163.035,240.03 L165.004,216.796" id="Fill-108" fill="#FEA347"></path>
                <path d="M166.408022,215.527 L166.408022,213.687 L165.975,213.687 C165.431,212.516 164.375,211.408 162.784,210.489 C157.95,207.698 150.113,207.698 145.28,210.489 C143.688,211.408 142.632,212.516 142.088,213.687 L141.654,213.687 L141.654,215.542 C141.654,217.371 142.863,219.2 145.28,220.595 C150.113,223.386 157.951,223.386 162.784,220.595 C165.207,219.196 166.414,217.361 166.408022,215.527" id="Fill-109" fill="#D4D5CF"></path>
                <path d="M162.784,218.848 C157.951,221.639 150.113,221.639 145.28,218.848 C140.446,216.057 140.446,211.533 145.28,208.742 C150.113,205.951 157.95,205.951 162.784,208.742 C167.618,211.533 167.618,216.057 162.784,218.848" id="Fill-110" fill="#E4E4DE"></path>
                <path d="M163.949012,213.029 L163.949012,211.554 L163.601,211.554 C163.166,210.616 162.32,209.729 161.045,208.992 C157.171,206.756 150.892,206.756 147.019,208.992 C145.744,209.729 144.897,210.616 144.462,211.554 L144.114,211.554 L144.114,213.041 C144.114,214.506 145.082,215.972 147.019,217.09 C150.892,219.326 157.171,219.326 161.045,217.09 C162.986,215.969 163.953,214.499 163.949012,213.029" id="Fill-111" fill="#D4D5CF"></path>
                <path d="M161.045,215.69 C157.172,217.926 150.892,217.926 147.019,215.69 C143.146,213.454 143.146,209.828 147.019,207.592 C150.892,205.356 157.171,205.356 161.045,207.592 C164.918,209.828 164.918,213.454 161.045,215.69" id="Fill-112" fill="#F1F0EC"></path>
                <path d="M159.427,214.51 C156.453,216.23 151.615,216.23 148.63,214.51 C145.745,212.845 145.645,210.182 148.33,208.462 C148.431,208.396 148.53,208.329 148.63,208.274 C149.251,207.919 149.962,207.63 150.716,207.419 C153.557,206.631 157.075,206.909 159.427,208.274 C162.412,209.993 162.412,212.79 159.427,214.51" id="Fill-113" fill="#EAEAE5"></path>
                <path d="M148.633,209.162 C151.615,207.441 156.449,207.441 159.431,209.162 C160.726,209.91 161.458,210.86 161.627,211.837 C161.848,210.566 161.117,209.251 159.431,208.277 C156.449,206.555 151.615,206.555 148.633,208.277 C146.946,209.251 146.215,210.566 146.436,211.837 C146.606,210.86 147.337,209.91 148.633,209.162" id="Fill-114" fill="#D4D5CF"></path>
                <path d="M152.714,209.461 L150.494,210.87 L148.33,209.317 L148.33,208.462 C148.431,208.396 148.53,208.329 148.63,208.274 C149.251,207.919 149.962,207.63 150.716,207.419 L150.716,208.063 L152.714,209.461" id="Fill-115" fill="#D4D5CF"></path>
                <path d="M413.368,72.995 L288.888,1.126 C287.459,0.301 286.175,0.363 285.264,1.119 L280.955,4.099 L283.894,7.732 L283.894,108.117 C283.894,111.794 286.13,116.066 288.888,117.658 L412.13,188.812 L412.359,192.727 L416.899,189.615 C417.803,188.932 418.362,187.59 418.362,185.752 L418.362,82.536 C418.362,78.859 416.126,74.587 413.368,72.995" id="Fill-116" fill="#A1669C"></path>
                <path d="M412.359,192.727 L412.13,188.812 L288.888,117.658 C286.13,116.066 283.894,111.794 283.894,108.117 L283.894,7.732 L280.955,4.099 L285.264,1.119 C285.728,0.735 286.287,0.53 286.914,0.53 C287.519,0.53 288.186,0.721 288.888,1.126 L413.368,72.995 C416.126,74.587 418.362,78.859 418.362,82.536 L418.362,185.752 C418.362,187.59 417.803,188.932 416.899,189.615 L412.359,192.727" id="Fill-117" fill="#F4661B"></path>
                <path d="M409.128,192.445 L284.647,120.576 C281.889,118.984 279.654,114.712 279.654,111.035 L279.654,7.819 C279.654,4.142 281.889,2.452 284.647,4.044 L409.128,75.913 C411.886,77.505 414.121,81.777 414.121,85.454 L414.121,188.67 C414.121,192.347 411.886,194.037 409.128,192.445" id="Fill-118" fill="#A1669C"></path>
                <path d="M409.128,192.445 L284.647,120.576 C281.889,118.984 279.654,114.712 279.654,111.035 L279.654,7.819 C279.654,4.142 281.889,2.452 284.647,4.044 L409.128,75.913 C411.886,77.505 414.121,81.777 414.121,85.454 L414.121,188.67 C414.121,192.347 411.886,194.037 409.128,192.445" id="Fill-119" fill="#FEA347"></path>
                <path d="M409.128,75.913 L284.647,4.044 C281.889,2.452 279.654,4.142 279.654,7.819 L279.654,12.865 L414.121,90.5 L414.121,85.454 C414.121,81.777 411.886,77.505 409.128,75.913" id="Fill-120" fill="#334F55"></path>
                <path d="M282.665,3.445 C280.893,3.445 279.654,5.082 279.654,7.819 L279.654,111.035 C279.654,114.712 281.889,118.984 284.647,120.576 L409.128,192.445 C409.832,192.852 410.503,193.045 411.111,193.045 C412.882,193.045 414.121,191.408 414.121,188.67 L414.121,85.454 C414.121,81.777 411.886,77.505 409.128,75.913 L284.647,4.044 C283.943,3.637 283.273,3.445 282.665,3.445 Z M282.665,4.445 L282.665,4.445 C283.108,4.445 283.62,4.606 284.147,4.91 L408.628,76.779 C411.064,78.186 413.121,82.158 413.121,85.454 L413.121,188.67 C413.121,190.72 412.332,192.045 411.111,192.045 C410.661,192.045 410.163,191.888 409.628,191.579 L285.147,119.71 C282.712,118.304 280.654,114.331 280.654,111.035 L280.654,7.819 C280.654,5.77 281.443,4.445 282.665,4.445 L282.665,4.445 Z" id="Fill-121" fill="#F4661B"></path>
                <path d="M337.36,58.089 C337.18,58.089 336.998,58.044 336.831,57.948 L289.447,30.59 C288.94,30.298 288.767,29.65 289.059,29.143 C289.351,28.638 289.998,28.463 290.506,28.755 L337.89,56.113 C338.397,56.405 338.57,57.053 338.278,57.56 C338.082,57.899 337.726,58.089 337.36,58.089" id="Fill-122" fill="#FFFFFE"></path>
                <path d="M404.031,96.582 C403.851,96.582 403.669,96.536 403.502,96.439 L368.402,76.175 C367.896,75.883 367.723,75.235 368.015,74.728 C368.306,74.222 368.955,74.047 369.462,74.341 L404.561,94.606 C405.068,94.897 405.241,95.545 404.949,96.052 C404.753,96.392 404.397,96.582 404.031,96.582" id="Fill-123" fill="#FFFFFE"></path>
                <path d="M361.321,71.923 C361.141,71.923 360.959,71.878 360.792,71.782 L346.535,63.551 C346.029,63.258 345.856,62.61 346.148,62.104 C346.441,61.598 347.088,61.423 347.595,61.716 L361.852,69.947 C362.358,70.239 362.532,70.887 362.24,71.394 C362.043,71.733 361.687,71.923 361.321,71.923" id="Fill-124" fill="#FFFFFE"></path>
                <path d="M337.36,124.457 C337.18,124.457 336.998,124.411 336.831,124.315 L289.447,96.958 C288.94,96.665 288.767,96.017 289.059,95.51 C289.351,95.004 289.998,94.831 290.506,95.123 L337.89,122.48 C338.397,122.773 338.57,123.42 338.278,123.927 C338.082,124.267 337.726,124.457 337.36,124.457" id="Fill-125" fill="#FFFFFE"></path>
                <path d="M404.031,162.949 C403.851,162.949 403.669,162.904 403.502,162.808 L368.402,142.542 C367.896,142.25 367.723,141.602 368.015,141.095 C368.306,140.589 368.955,140.414 369.462,140.708 L404.561,160.973 C405.068,161.265 405.241,161.913 404.949,162.42 C404.753,162.759 404.397,162.949 404.031,162.949" id="Fill-126" fill="#FFFFFE"></path>
                <path d="M361.321,138.291 C361.141,138.291 360.959,138.245 360.792,138.149 L346.535,129.918 C346.029,129.626 345.856,128.978 346.148,128.471 C346.441,127.965 347.088,127.791 347.595,128.083 L361.852,136.314 C362.358,136.607 362.532,137.254 362.24,137.761 C362.043,138.101 361.687,138.291 361.321,138.291" id="Fill-127" fill="#FFFFFE"></path>
                <path d="M337.36,140.061 C337.18,140.061 336.998,140.015 336.831,139.919 L289.447,112.562 C288.94,112.27 288.767,111.622 289.059,111.115 C289.352,110.609 289.998,110.435 290.506,110.727 L337.89,138.084 C338.397,138.377 338.57,139.024 338.278,139.531 C338.082,139.871 337.726,140.061 337.36,140.061" id="Fill-128" fill="#FFFFFE"></path>
                <path d="M389.092,169.928 C388.912,169.928 388.73,169.883 388.563,169.786 L368.402,158.147 C367.896,157.855 367.723,157.207 368.014,156.7 C368.307,156.194 368.955,156.019 369.462,156.313 L389.622,167.952 C390.129,168.244 390.302,168.892 390.01,169.399 C389.814,169.738 389.458,169.928 389.092,169.928" id="Fill-129" fill="#FFFFFE"></path>
                <path d="M361.321,153.895 C361.141,153.895 360.959,153.85 360.792,153.753 L346.535,145.523 C346.029,145.23 345.856,144.582 346.148,144.075 C346.441,143.569 347.088,143.395 347.595,143.688 L361.852,151.919 C362.358,152.211 362.532,152.859 362.24,153.366 C362.043,153.705 361.687,153.895 361.321,153.895" id="Fill-130" fill="#FFFFFE"></path>
                <path d="M313.729,52.693 C313.549,52.693 313.367,52.647 313.2,52.551 L289.447,38.836 C288.94,38.544 288.767,37.897 289.059,37.39 C289.351,36.884 289.998,36.709 290.506,37.003 L314.26,50.717 C314.766,51.009 314.939,51.657 314.647,52.164 C314.451,52.503 314.095,52.693 313.729,52.693" id="Fill-131" fill="#FFFFFE"></path>
                <path d="M382.164,92.204 C381.985,92.204 381.803,92.158 381.636,92.062 L346.535,71.797 C346.029,71.505 345.856,70.857 346.148,70.35 C346.441,69.844 347.088,69.671 347.595,69.962 L382.695,90.227 C383.202,90.52 383.375,91.168 383.083,91.674 C382.887,92.014 382.531,92.204 382.164,92.204" id="Fill-132" fill="#FFFFFE"></path>
                <path d="M337.69,66.527 C337.511,66.527 337.328,66.482 337.161,66.385 L322.905,58.154 C322.399,57.862 322.225,57.214 322.517,56.707 C322.81,56.201 323.457,56.026 323.965,56.32 L338.221,64.551 C338.727,64.843 338.901,65.491 338.608,65.998 C338.412,66.337 338.056,66.527 337.69,66.527" id="Fill-133" fill="#FFFFFE"></path>
                <path d="M337.36,74.582 C337.18,74.582 336.998,74.537 336.831,74.44 L289.447,47.084 C288.94,46.791 288.767,46.143 289.059,45.636 C289.352,45.13 289.998,44.957 290.506,45.249 L337.89,72.606 C338.397,72.898 338.57,73.546 338.278,74.053 C338.082,74.392 337.726,74.582 337.36,74.582" id="Fill-134" fill="#FFFFFE"></path>
                <path d="M378.281,98.208 C378.101,98.208 377.919,98.163 377.752,98.066 L368.402,92.668 C367.896,92.376 367.723,91.728 368.015,91.221 C368.306,90.716 368.955,90.541 369.462,90.834 L378.811,96.232 C379.318,96.524 379.491,97.172 379.199,97.679 C379.003,98.018 378.647,98.208 378.281,98.208" id="Fill-135" fill="#FFFFFE"></path>
                <path d="M318.404,71.885 C318.224,71.885 318.042,71.839 317.875,71.743 L308.525,66.345 C308.019,66.053 307.846,65.405 308.138,64.898 C308.43,64.392 309.077,64.218 309.585,64.51 L318.935,69.908 C319.441,70.201 319.615,70.849 319.323,71.356 C319.126,71.695 318.77,71.885 318.404,71.885" id="Fill-136" fill="#FFFFFE"></path>
                <path d="M361.321,88.417 C361.141,88.417 360.959,88.371 360.792,88.275 L346.535,80.044 C346.029,79.752 345.856,79.104 346.148,78.597 C346.441,78.091 347.088,77.917 347.595,78.209 L361.852,86.44 C362.358,86.732 362.532,87.38 362.24,87.887 C362.043,88.227 361.687,88.417 361.321,88.417" id="Fill-137" fill="#FFFFFE"></path>
                <path d="M305.163,64.24 C304.983,64.24 304.801,64.194 304.634,64.098 L289.447,55.33 C288.94,55.038 288.767,54.39 289.059,53.883 C289.352,53.377 289.998,53.203 290.506,53.495 L305.694,62.263 C306.2,62.556 306.373,63.204 306.081,63.711 C305.885,64.05 305.529,64.24 305.163,64.24" id="Fill-138" fill="#FFFFFE"></path>
                <path d="M337.69,83.02 C337.511,83.02 337.328,82.975 337.161,82.878 L322.905,74.647 C322.399,74.355 322.225,73.707 322.517,73.2 C322.81,72.694 323.457,72.519 323.965,72.813 L338.221,81.044 C338.727,81.336 338.901,81.984 338.608,82.491 C338.412,82.83 338.056,83.02 337.69,83.02" id="Fill-139" fill="#FFFFFE"></path>
                <path d="M337.36,91.677 C337.18,91.677 336.998,91.631 336.831,91.535 L289.447,64.178 C288.94,63.886 288.767,63.238 289.059,62.731 C289.352,62.226 289.998,62.05 290.506,62.343 L337.89,89.7 C338.397,89.993 338.57,90.641 338.278,91.147 C338.082,91.487 337.726,91.677 337.36,91.677" id="Fill-140" fill="#FFFFFE"></path>
                <path d="M404.031,130.17 C403.851,130.17 403.669,130.124 403.502,130.027 L368.402,109.763 C367.896,109.471 367.723,108.823 368.015,108.316 C368.306,107.811 368.955,107.634 369.462,107.929 L404.561,128.193 C405.068,128.485 405.241,129.133 404.949,129.64 C404.753,129.98 404.397,130.17 404.031,130.17" id="Fill-141" fill="#FFFFFE"></path>
                <path d="M361.321,105.511 C361.141,105.511 360.959,105.466 360.792,105.37 L346.535,97.139 C346.029,96.846 345.856,96.198 346.148,95.691 C346.441,95.186 347.088,95.012 347.595,95.304 L361.852,103.535 C362.358,103.827 362.532,104.475 362.24,104.982 C362.043,105.321 361.687,105.511 361.321,105.511" id="Fill-142" fill="#FFFFFE"></path>
                <path d="M313.729,86.28 C313.549,86.28 313.367,86.235 313.2,86.139 L289.447,72.425 C288.94,72.132 288.767,71.484 289.059,70.978 C289.352,70.472 289.998,70.298 290.506,70.59 L314.26,84.304 C314.766,84.596 314.939,85.244 314.647,85.751 C314.451,86.09 314.095,86.28 313.729,86.28" id="Fill-143" fill="#FFFFFE"></path>
                <path d="M382.164,125.792 C381.985,125.792 381.803,125.746 381.636,125.65 L346.535,105.385 C346.029,105.093 345.856,104.445 346.148,103.938 C346.441,103.432 347.088,103.258 347.595,103.55 L382.695,123.815 C383.202,124.108 383.375,124.755 383.083,125.262 C382.887,125.602 382.531,125.792 382.164,125.792" id="Fill-144" fill="#FFFFFE"></path>
                <path d="M337.69,100.114 C337.511,100.114 337.328,100.069 337.161,99.972 L322.905,91.741 C322.399,91.449 322.225,90.801 322.517,90.294 C322.81,89.789 323.457,89.614 323.965,89.907 L338.221,98.138 C338.727,98.43 338.901,99.078 338.608,99.585 C338.412,99.924 338.056,100.114 337.69,100.114" id="Fill-145" fill="#FFFFFE"></path>
                <path d="M337.36,108.17 C337.18,108.17 336.998,108.125 336.831,108.028 L289.447,80.672 C288.94,80.379 288.767,79.731 289.059,79.224 C289.352,78.718 289.998,78.544 290.506,78.836 L337.89,106.193 C338.397,106.486 338.57,107.134 338.278,107.641 C338.082,107.98 337.726,108.17 337.36,108.17" id="Fill-146" fill="#FFFFFE"></path>
                <path d="M378.281,131.796 C378.101,131.796 377.919,131.751 377.752,131.654 L368.402,126.256 C367.896,125.964 367.723,125.316 368.015,124.809 C368.306,124.304 368.955,124.129 369.462,124.421 L378.811,129.819 C379.318,130.112 379.491,130.76 379.199,131.267 C379.003,131.606 378.647,131.796 378.281,131.796" id="Fill-147" fill="#FFFFFE"></path>
                <path d="M318.404,105.473 C318.224,105.473 318.042,105.427 317.875,105.331 L308.525,99.932 C308.019,99.64 307.846,98.992 308.138,98.485 C308.43,97.98 309.077,97.804 309.585,98.098 L318.935,103.497 C319.441,103.789 319.615,104.437 319.322,104.943 C319.126,105.283 318.77,105.473 318.404,105.473" id="Fill-148" fill="#FFFFFE"></path>
                <path d="M361.321,122.004 C361.141,122.004 360.959,121.959 360.792,121.862 L346.535,113.631 C346.029,113.339 345.856,112.691 346.148,112.184 C346.441,111.678 347.088,111.505 347.595,111.796 L361.852,120.027 C362.358,120.32 362.532,120.968 362.24,121.475 C362.043,121.814 361.687,122.004 361.321,122.004" id="Fill-149" fill="#FFFFFE"></path>
                <path d="M305.163,97.828 C304.983,97.828 304.801,97.782 304.634,97.686 L289.447,88.918 C288.94,88.626 288.767,87.978 289.059,87.471 C289.352,86.964 289.998,86.791 290.506,87.083 L305.694,95.851 C306.2,96.144 306.373,96.792 306.081,97.298 C305.885,97.638 305.529,97.828 305.163,97.828" id="Fill-150" fill="#FFFFFE"></path>
                <path d="M337.69,116.608 C337.511,116.608 337.328,116.562 337.161,116.465 L322.905,108.234 C322.399,107.942 322.225,107.295 322.517,106.788 C322.81,106.282 323.457,106.108 323.965,106.4 L338.221,114.631 C338.727,114.923 338.901,115.571 338.608,116.078 C338.412,116.418 338.056,116.608 337.69,116.608" id="Fill-151" fill="#FFFFFE"></path>
                <path d="M318.404,121.28 C318.224,121.28 318.042,121.234 317.875,121.138 L308.525,115.74 C308.019,115.448 307.846,114.8 308.138,114.293 C308.43,113.788 309.077,113.613 309.585,113.905 L318.935,119.303 C319.441,119.596 319.615,120.244 319.323,120.75 C319.126,121.09 318.77,121.28 318.404,121.28" id="Fill-152" fill="#FFFFFE"></path>
                <path d="M305.163,113.635 C304.983,113.635 304.801,113.59 304.634,113.493 L289.447,104.725 C288.94,104.433 288.767,103.785 289.059,103.278 C289.352,102.772 289.998,102.597 290.506,102.891 L305.694,111.659 C306.2,111.951 306.373,112.599 306.081,113.106 C305.885,113.445 305.529,113.635 305.163,113.635" id="Fill-153" fill="#FFFFFE"></path>
                <path d="M337.69,132.415 C337.511,132.415 337.328,132.37 337.161,132.273 L322.905,124.042 C322.399,123.75 322.225,123.102 322.517,122.595 C322.81,122.089 323.457,121.916 323.965,122.208 L338.221,130.439 C338.727,130.731 338.901,131.379 338.608,131.886 C338.412,132.225 338.056,132.415 337.69,132.415" id="Fill-154" fill="#FFFFFE"></path>
                <path d="M291.96,13.674 C291.96,14.765 291.194,15.207 290.249,14.661 C289.305,14.116 288.539,12.79 288.539,11.698 C288.539,10.607 289.305,10.166 290.249,10.711 C291.194,11.256 291.96,12.583 291.96,13.674" id="Fill-159" fill="#FFFFFE"></path>
                <path d="M298.319,17.6 C298.319,18.69 297.553,19.132 296.608,18.587 C295.663,18.042 294.897,16.715 294.897,15.624 C294.897,14.533 295.663,14.091 296.608,14.637 C297.553,15.182 298.319,16.508 298.319,17.6" id="Fill-160" fill="#FFFFFE"></path>
                <path d="M304.678,21.526 C304.678,22.616 303.911,23.058 302.967,22.513 C302.022,21.967 301.256,20.641 301.256,19.55 C301.256,18.459 302.022,18.017 302.967,18.563 C303.911,19.108 304.678,20.434 304.678,21.526" id="Fill-161" fill="#FFFFFE"></path>
            </g>
        </g>
    </g>
</svg>